<?xml version="1.0" encoding="UTF-8"?>
<svg width="24px" height="24px" viewBox="0 0 24 24" version="1.1" xmlns="http://www.w3.org/2000/svg" xmlns:xlink="http://www.w3.org/1999/xlink">
    <title>analytics</title>
    <defs>
        <path d="M0.5,0 C0.8,0 1,0.2 1,0.5 L1,0.5 L1,22 C1,22.5 1.5,23 2.1,23 L2.1,23 L23.5,23 C23.8,23 24,23.199 24,23.5 C24,23.8 23.8,24 23.5,24 L23.5,24 L2.1,24 C0.9,24 0,23.1 0,22 L0,22 L0,0.5 C0,0.2 0.2,0 0.5,0 Z M16.5,5 C16.8,5 17,5.2 17,5.5 L17,5.5 L17,20.5 C17,20.8 16.8,21 16.5,21 C16.2,21 16,20.8 16,20.5 L16,20.5 L16,5.5 C16,5.2 16.2,5 16.5,5 Z M20.5,2 C20.8,2 21,2.2 21,2.5 L21,2.5 L21,20.5 C21,20.8 20.8,21 20.5,21 C20.2,21 20,20.8 20,20.5 L20,20.5 L20,2.5 C20,2.2 20.2,2 20.5,2 Z M4.5,17 C4.8,17 5,17.199 5,17.5 L5,17.5 L5,20.5 C5,20.8 4.8,21 4.5,21 C4.2,21 4,20.8 4,20.5 L4,20.5 L4,17.5 C4,17.199 4.2,17 4.5,17 Z M8.5,13 C8.8,13 9,13.199 9,13.5 L9,13.5 L9,20.5 C9,20.8 8.8,21 8.5,21 C8.2,21 8,20.8 8,20.5 L8,20.5 L8,13.5 C8,13.199 8.2,13 8.5,13 Z M12.5,9 C12.8,9 13,9.2 13,9.5 L13,9.5 L13,20.5 C13,20.8 12.8,21 12.5,21 C12.2,21 12,20.8 12,20.5 L12,20.5 L12,9.5 C12,9.2 12.2,9 12.5,9 Z" id="path-1"></path>
    </defs>
    <g id="analytics" stroke="none" stroke-width="1" fill="none" fill-rule="evenodd">
        <g id="just-the-blue-icon-copy">
            <mask id="mask-2" fill="white">
                <use xlink:href="#path-1"></use>
            </mask>
            <use id="Mask" fill="#919191" xlink:href="#path-1"></use>
        </g>
    </g>
</svg>