<?xml version="1.0" encoding="UTF-8"?>
<svg width="26px" height="26px" viewBox="0 0 26 26" version="1.1" xmlns="http://www.w3.org/2000/svg" xmlns:xlink="http://www.w3.org/1999/xlink">
    <title>03-action/108-clip</title>
    <defs>
        <path d="M13.0361916,21.4415874 C12.8409294,21.6368495 12.524347,21.6368495 12.3290848,21.4415874 C12.1338227,21.2463252 12.1338227,20.9297428 12.3290848,20.7344806 L21.7371964,11.326369 C23.598988,9.4645774 23.6724993,6.62829183 21.8714446,4.82815977 C20.0608604,3.01757551 17.1812515,3.06805934 15.3305434,4.91971601 L3.36677347,16.883486 C1.98358567,18.2666738 1.86406311,20.1772157 3.13213233,21.4461517 C4.39085396,22.7048733 6.25654651,22.5653321 7.65210613,21.1688186 L17.7300511,11.0908738 C18.6375802,10.1843019 18.7868692,9.28866884 18.0989024,8.60070201 C17.4109356,7.91273518 16.5153024,8.06202419 15.6085441,8.96973994 L8.08785218,16.4904319 C7.89259003,16.685694 7.57600754,16.685694 7.3807454,16.4904319 C7.18548325,16.2951697 7.18548325,15.9785872 7.3807454,15.7833251 L14.9012508,8.26281978 C16.1570902,7.00565426 17.6664756,6.75406166 18.8060092,7.89359523 C19.9455427,9.0331288 19.6939501,10.5425142 18.4369712,11.7981671 L8.35933368,21.8758046 C6.59492839,23.6414159 4.09980164,23.8280346 2.42490478,22.1531377 C0.745396556,20.4724815 0.904346634,17.9316992 2.65966669,16.1763792 L14.6233461,4.21269982 C16.8590577,1.97584225 20.3717578,1.91425938 22.5784608,4.12096241 C24.7786002,6.31997464 24.688687,9.78909197 22.4443032,12.0334758 L13.0361916,21.4415874 Z" id="path-1"></path>
    </defs>
    <g id="03-action/108-clip" stroke="none" stroke-width="1" fill="none" fill-rule="evenodd">
        <mask id="mask-2" fill="white">
            <use xlink:href="#path-1"></use>
        </mask>
        <use id="🎨-Style" fill="#056DAE" xlink:href="#path-1"></use>
    </g>
</svg>