<?xml version="1.0" encoding="UTF-8"?>
<svg width="17px" height="19px" viewBox="0 0 17 19" version="1.1" xmlns="http://www.w3.org/2000/svg" xmlns:xlink="http://www.w3.org/1999/xlink">
    <title>copy</title>
    <defs>
        <path d="M8,14.64 L8,13.2307692 C8,13.0609231 8.13784615,12.9230769 8.30769231,12.9230769 L11.8067692,12.9230769 L8,14.64 Z M3.07692308,14.4615385 L3.07692308,1.53846154 C3.07692308,1.36861538 3.21476923,1.23076923 3.38461538,1.23076923 L12.6153846,1.23076923 C12.7852308,1.23076923 12.9230769,1.36861538 12.9230769,1.53846154 L12.9230769,12.2203077 C12.9230769,12.2523077 12.9064615,12.2787692 12.8972308,12.3076923 L8.30769231,12.3076923 C7.79753846,12.3076923 7.38461538,12.7212308 7.38461538,13.2307692 L7.38461538,14.7692308 L3.38461538,14.7692308 C3.21476923,14.7692308 3.07692308,14.6313846 3.07692308,14.4615385 L3.07692308,14.4615385 Z M12.6153846,0.615384615 L3.38461538,0.615384615 C2.87446154,0.615384615 2.46153846,1.02830769 2.46153846,1.53846154 L2.46153846,14.4615385 C2.46153846,14.9710769 2.87446154,15.3846154 3.38461538,15.3846154 L7.64738462,15.3846154 C7.77846154,15.3846154 7.90769231,15.3569231 8.02646154,15.3027692 L12.9950769,13.0627692 C13.3255385,12.9126154 13.5384615,12.5833846 13.5384615,12.2203077 L13.5384615,1.53846154 C13.5384615,1.02830769 13.1249231,0.615384615 12.6153846,0.615384615 L12.6153846,0.615384615 Z" id="path-1"></path>
    </defs>
    <g id="copy" stroke="none" stroke-width="1" fill="none" fill-rule="evenodd">
        <g id="14-document/030-document">
            <mask id="mask-2" fill="white">
                <use xlink:href="#path-1"></use>
            </mask>
            <use id="Mask" fill="#056DAE" fill-rule="evenodd" xlink:href="#path-1"></use>
            <g id="color/b1" mask="url(#mask-2)" fill="#002A54" fill-rule="evenodd">
                <rect id="Color-/-B1" x="0" y="0" width="16" height="16"></rect>
            </g>
        </g>
        <g id="just-the-blue-icon-copy" transform="translate(5.000000, 3.000000)">
            <path d="M6,14.64 L6,13.2307692 C6,13.0609231 6.13784615,12.9230769 6.30769231,12.9230769 L9.80676923,12.9230769 L6,14.64 Z M10.6153846,0.615384615 L1.38461538,0.615384615 C0.874461538,0.615384615 0.461538462,1.02830769 0.461538462,1.53846154 L0.461538462,14.4615385 C0.461538462,14.9710769 0.874461538,15.3846154 1.38461538,15.3846154 L5.64738462,15.3846154 C5.77846154,15.3846154 5.90769231,15.3569231 6.02646154,15.3027692 L10.9950769,13.0627692 C11.3255385,12.9126154 11.5384615,12.5833846 11.5384615,12.2203077 L11.5384615,1.53846154 C11.5384615,1.02830769 11.1249231,0.615384615 10.6153846,0.615384615 L10.6153846,0.615384615 Z" id="Mask" fill="#002A54"></path>
            <path d="M1.07692308,14.4615385 L1.07692308,1.53846154 C1.07692308,1.36861538 1.21476923,1.23076923 1.38461538,1.23076923 L10.6153846,1.23076923 C10.7852308,1.23076923 10.9230769,1.36861538 10.9230769,1.53846154 L10.9230769,12.2203077 C10.9230769,12.2523077 10.9064615,12.2787692 10.8972308,12.3076923 L6.30769231,12.3076923 C5.79753846,12.3076923 5.38461538,12.7212308 5.38461538,13.2307692 L5.38461538,14.7692308 L1.38461538,14.7692308 C1.21476923,14.7692308 1.07692308,14.6313846 1.07692308,14.4615385 L1.07692308,14.4615385 Z" id="Path" fill="#FFFFFF"></path>
        </g>
    </g>
</svg>