<?xml version="1.0" encoding="UTF-8"?>
<svg width="26px" height="26px" viewBox="0 0 26 26" version="1.1" xmlns="http://www.w3.org/2000/svg" xmlns:xlink="http://www.w3.org/1999/xlink">
    <title>03-action/022-edit</title>
    <defs>
        <path d="M22.5811,7.7178 L20.8131,9.4858 L16.5711,5.2428 L18.3391,3.4748 C18.9251,2.8888 19.8741,2.8888 20.4601,3.4748 L22.5811,5.5958 C23.1671,6.1818 23.1671,7.1318 22.5811,7.7178 L22.5811,7.7178 Z M9.5001,20.7988 L5.2571,16.5568 L15.8641,5.9498 L20.1061,10.1928 L9.5001,20.7988 Z M8.7781,21.5208 L3.3381,22.7178 L4.5361,17.2788 L4.5501,17.2638 L8.7931,21.5058 L8.7781,21.5208 Z M23.2891,4.8888 L21.1671,2.7678 C20.1911,1.7918 18.6081,1.7918 17.6321,2.7678 L15.8641,4.5358 L15.1571,5.2428 L4.5501,15.8498 L3.8431,16.5568 L3.7251,16.6738 C3.6581,16.7418 3.6111,16.8268 3.5901,16.9198 L2.1941,23.2668 C2.1151,23.6228 2.4331,23.9418 2.7891,23.8628 L9.1361,22.4658 C9.2291,22.4458 9.3141,22.3988 9.3821,22.3308 L9.5001,22.2128 L10.2071,21.5058 L20.8131,10.8998 L21.5201,10.1928 L23.2891,8.4248 C24.2651,7.4478 24.2651,5.8648 23.2891,4.8888 L23.2891,4.8888 Z" id="path-1"></path>
    </defs>
    <g id="03-action/022-edit" stroke="none" stroke-width="1" fill="none" fill-rule="evenodd">
        <mask id="mask-2" fill="white">
            <use xlink:href="#path-1"></use>
        </mask>
        <use id="🎨-Style" fill="#056DAE" xlink:href="#path-1"></use>
    </g>
</svg>