<?xml version="1.0" encoding="UTF-8"?>
<svg width="26px" height="26px" viewBox="0 0 26 26" version="1.1" xmlns="http://www.w3.org/2000/svg" xmlns:xlink="http://www.w3.org/1999/xlink">
    <title>01-direction/037-home</title>
    <defs>
        <path d="M21.0002224,7.49975 L21.0002224,23.00075 L16.0002224,23.00075 L16.0002224,16.50075 C16.0002224,16.22475 15.7762224,16.00075 15.5002224,16.00075 L10.5002224,16.00075 C10.2242224,16.00075 10.0002224,16.22475 10.0002224,16.50075 L10.0002224,23.00075 L5.00022243,23.00075 L5.00022243,7.49975 C5.00022243,7.48875 4.99422243,7.47875 4.99422243,7.46775 L13.0002224,2.58575 L21.0072224,7.46775 C21.0062224,7.47875 21.0002224,7.48875 21.0002224,7.49975 M24.2612224,8.28175 L13.2602224,1.57275 C13.1012224,1.47575 12.8992224,1.47575 12.7402224,1.57275 L1.74022243,8.28175 C1.50422243,8.42475 1.42922243,8.73275 1.57322243,8.96875 C1.71722243,9.20475 2.02422243,9.27875 2.26022243,9.13475 L4.00022243,8.07475 L4.00022243,23.50075 C4.00022243,23.77675 4.22422243,24.00075 4.50022243,24.00075 L10.5002224,24.00075 C10.7762224,24.00075 11.0002224,23.77675 11.0002224,23.50075 L11.0002224,17.00075 L15.0002224,17.00075 L15.0002224,23.50075 C15.0002224,23.77675 15.2242224,24.00075 15.5002224,24.00075 L21.5002224,24.00075 C21.7762224,24.00075 22.0002224,23.77675 22.0002224,23.50075 L22.0002224,8.07475 L23.7392224,9.13475 C23.9762224,9.27875 24.2832224,9.20475 24.4272224,8.96875 C24.5702224,8.73275 24.4962224,8.42475 24.2612224,8.28175" id="path-1"></path>
    </defs>
    <g id="01-direction/037-home" stroke="none" stroke-width="1" fill="none" fill-rule="evenodd">
        <mask id="mask-2" fill="white">
            <use xlink:href="#path-1"></use>
        </mask>
        <use id="Mask" fill="#046EAE" xlink:href="#path-1"></use>
        <g id="Group" mask="url(#mask-2)" fill="#002A54">
            <g id="icon-color">
                <rect id="Color-/-B1" x="0" y="0" width="26" height="26"></rect>
            </g>
        </g>
    </g>
</svg>