<?xml version="1.0" encoding="UTF-8"?>
<svg width="26px" height="26px" viewBox="0 0 26 26" version="1.1" xmlns="http://www.w3.org/2000/svg" xmlns:xlink="http://www.w3.org/1999/xlink">
    <title>14-document/159-document-personal</title>
    <defs>
        <path d="M5,1 L21,1 C21.5522847,1 22,1.44771525 22,2 L22,24 C22,24.5522847 21.5522847,25 21,25 L5,25 C4.44771525,25 4,24.5522847 4,24 L4,2 C4,1.44771525 4.44771525,1 5,1 Z M5,2 L5,24 L21,24 L21,2 L5,2 Z M7.75,18 C7.47385763,18 7.25,17.7761424 7.25,17.5 C7.25,17.2238576 7.47385763,17 7.75,17 L18.25,17 C18.5261424,17 18.75,17.2238576 18.75,17.5 C18.75,17.7761424 18.5261424,18 18.25,18 L7.75,18 Z M7.75,15 C7.47385763,15 7.25,14.7761424 7.25,14.5 C7.25,14.2238576 7.47385763,14 7.75,14 L18.25,14 C18.5261424,14 18.75,14.2238576 18.75,14.5 C18.75,14.7761424 18.5261424,15 18.25,15 L7.75,15 Z M7.75,12 C7.47385763,12 7.25,11.7761424 7.25,11.5 C7.25,11.2238576 7.47385763,11 7.75,11 L18.25,11 C18.5261424,11 18.75,11.2238576 18.75,11.5 C18.75,11.7761424 18.5261424,12 18.25,12 L7.75,12 Z M18.1,5 C18.5970563,5 19,5.40294373 19,5.9 L19,8.1 C19,8.59705627 18.5970563,9 18.1,9 L7.9,9 C7.40294373,9 7,8.59705627 7,8.1 L7,5.9 C7,5.40294373 7.40294373,5 7.9,5 L18.1,5 Z M18,6 L8,6 L8,8 L18,8 L18,6 Z" id="path-1"></path>
    </defs>
    <g id="14-document/159-document-personal" stroke="none" stroke-width="1" fill="none" fill-rule="evenodd">
        <mask id="mask-2" fill="white">
            <use xlink:href="#path-1"></use>
        </mask>
        <use id="🎨-Style" fill="#056DAE" xlink:href="#path-1"></use>
    </g>
</svg>