<?xml version="1.0" encoding="UTF-8"?>
<svg width="6px" height="22px" viewBox="0 0 6 22" version="1.1" xmlns="http://www.w3.org/2000/svg" xmlns:xlink="http://www.w3.org/1999/xlink">
    <title>036-more-vertical</title>
    <defs>
        <path d="M3,0 C4.6568542,0 6,1.3431458 6,3 C6,4.6568542 4.6568542,6 3,6 C1.3431458,6 0,4.6568542 0,3 C0,1.3431458 1.3431458,0 3,0 Z" id="path-1"></path>
    </defs>
    <g id="Page-1" stroke="none" stroke-width="1" fill="none" fill-rule="evenodd">
        <g id="036-more-vertical">
            <g id="Mask" transform="translate(3.000000, 11.000000) rotate(90.000000) translate(-3.000000, -11.000000) translate(-8.000000, 8.000000)" fill="#056DAE" fill-rule="nonzero">
                <path d="M19,0 C20.6568542,0 22,1.3431458 22,3 C22,4.6568542 20.6568542,6 19,6 C17.3431458,6 16,4.6568542 16,3 C16,1.3431458 17.3431458,0 19,0 Z M11,0 C12.6568542,0 14,1.3431458 14,3 C14,4.6568542 12.6568542,6 11,6 C9.3431458,6 8,4.6568542 8,3 C8,1.3431458 9.3431458,0 11,0 Z M3,0 C4.65685425,0 6,1.3431458 6,3 C6,4.6568542 4.65685425,6 3,6 C1.34314575,6 0,4.6568542 0,3 C0,1.3431458 1.34314575,0 3,0 Z" id="path-1"></path>
            </g>
            <g id="Group-Clipped" transform="translate(0.000000, 8.000000)">
                <mask id="mask-2" fill="white">
                    <use xlink:href="#path-1"></use>
                </mask>
                <g id="path-1"></g>
                <g id="Group" mask="url(#mask-2)">
                    <g transform="translate(-10.000000, -10.000000)" id="#056DAE">
                        <rect id="Rectangle" fill="#056DAE" fill-rule="nonzero" x="0" y="0" width="30" height="30"></rect>
                    </g>
                </g>
            </g>
        </g>
    </g>
</svg>