<?xml version="1.0" encoding="UTF-8"?>
<svg width="26px" height="26px" viewBox="0 0 26 26" version="1.1" xmlns="http://www.w3.org/2000/svg" xmlns:xlink="http://www.w3.org/1999/xlink">
    <title>14-document/228-document-overview</title>
    <defs>
        <path d="M21,19.8584 C21,19.9104 20.973,19.9534 20.958,20.0004 L13.5,20.0004 C12.671,20.0004 12,20.6714 12,21.5004 L12,24.0004 L5.5,24.0004 C5.224,24.0004 5,23.7764 5,23.5004 L5,2.5004 C5,2.2234 5.224,2.0004 5.5,2.0004 L20.5,2.0004 C20.776,2.0004 21,2.2234 21,2.5004 L21,19.8584 Z M13,23.7904 L13,21.5004 C13,21.2234 13.224,21.0004 13.5,21.0004 L19.186,21.0004 L13,23.7904 Z M20.5,1.0004 L5.5,1.0004 C4.671,1.0004 4,1.6714 4,2.5004 L4,23.5004 C4,24.3284 4.671,25.0004 5.5,25.0004 L12.427,25.0004 C12.64,25.0004 12.85,24.9554 13.044,24.8674 L21.117,21.2264 C21.654,20.9834 22,20.4484 22,19.8584 L22,2.5004 C22,1.6714 21.328,1.0004 20.5,1.0004 L20.5,1.0004 Z M18.8418,15 L11.9998,15 C11.7238,15 11.4998,15.224 11.4998,15.5 C11.4998,15.776 11.7238,16 11.9998,16 L18.8418,16 C19.1168,16 19.3418,15.776 19.3418,15.5 C19.3418,15.224 19.1168,15 18.8418,15 M18.8418,11 L11.9998,11 C11.7238,11 11.4998,11.224 11.4998,11.5 C11.4998,11.776 11.7238,12 11.9998,12 L18.8418,12 C19.1168,12 19.3418,11.776 19.3418,11.5 C19.3418,11.224 19.1168,11 18.8418,11 M18.8418,7 L11.9998,7 C11.7238,7 11.4998,7.224 11.4998,7.5 C11.4998,7.776 11.7238,8 11.9998,8 L18.8418,8 C19.1168,8 19.3418,7.776 19.3418,7.5 C19.3418,7.224 19.1168,7 18.8418,7 M9.2842,5.6851 L7.9322,7.3511 L7.3612,6.7531 C7.1712,6.5541 6.8542,6.5471 6.6542,6.7371 C6.4552,6.9281 6.4482,7.2451 6.6382,7.4441 L7.6022,8.4531 C7.8102,8.6701 8.1622,8.6561 8.3512,8.4221 L10.0602,6.3151 C10.2342,6.1011 10.2012,5.7861 9.9872,5.6121 C9.7732,5.4371 9.4582,5.4711 9.2842,5.6851 M9.2842,13.6851 L7.9322,15.3521 L7.3612,14.7531 C7.1712,14.5541 6.8542,14.5471 6.6542,14.7371 C6.4552,14.9281 6.4482,15.2451 6.6382,15.4441 L7.6022,16.4521 C7.8102,16.6701 8.1622,16.6561 8.3512,16.4221 L10.0602,14.3151 C10.2342,14.1011 10.2012,13.7861 9.9872,13.6121 C9.7732,13.4371 9.4582,13.4711 9.2842,13.6851 M9.2842,9.6851 L7.9322,11.3511 L7.3612,10.7531 C7.1712,10.5541 6.8542,10.5471 6.6542,10.7371 C6.4552,10.9281 6.4482,11.2451 6.6382,11.4441 L7.6022,12.4531 C7.8102,12.6701 8.1622,12.6561 8.3512,12.4221 L10.0602,10.3151 C10.2342,10.1011 10.2012,9.7861 9.9872,9.6121 C9.7732,9.4371 9.4582,9.4711 9.2842,9.6851" id="path-1"></path>
    </defs>
    <g id="14-document/228-document-overview" stroke="none" stroke-width="1" fill="none" fill-rule="evenodd">
        <mask id="mask-2" fill="white">
            <use xlink:href="#path-1"></use>
        </mask>
        <use id="🎨-Style" fill="#056DAE" xlink:href="#path-1"></use>
    </g>
</svg>